<?xml version="1.0" encoding="utf-8"?>
<!-- Generator: Adobe Illustrator 16.0.4, SVG Export Plug-In . SVG Version: 6.00 Build 0)  -->
<!DOCTYPE svg PUBLIC "-//W3C//DTD SVG 1.1//EN" "http://www.w3.org/Graphics/SVG/1.1/DTD/svg11.dtd">
<svg version="1.1" id="Layer_1" xmlns="http://www.w3.org/2000/svg" xmlns:xlink="http://www.w3.org/1999/xlink" x="0px" y="0px"
	 width="675.75px" height="50px" viewBox="0 0 675.75 50" enable-background="new 0 0 675.75 50" xml:space="preserve">
<g opacity="0.2">
	<path fill="#FFFFFF" d="M24.7,42.104c-10.349,0-15.005-5.176-15.005-11.9l0.517-0.518h6.209l0.517,0.518
		c0,3.622,2.07,5.691,8.279,5.691c4.657,0,7.244-1.554,7.244-4.658c0-3.62-2.07-4.654-9.313-5.689
		c-7.244-1.035-12.936-3.623-12.936-10.866c0-5.174,4.14-9.831,13.971-9.831s13.971,4.657,13.971,10.866l-0.518,0.517h-6.209
		l-0.518-0.517c0-3.104-1.552-4.657-7.244-4.657c-4.657,0-6.209,1.553-6.209,3.622c0,3.104,2.07,4.14,9.313,5.174
		c7.244,1.034,12.936,4.139,12.936,11.381C39.705,36.928,35.565,42.104,24.7,42.104z"/>
	<path fill="#FFFFFF" d="M74.626,27.614c0,9.312-5.174,14.487-14.488,14.487S45.65,36.927,45.65,27.614V5.883l0.517-0.518h6.209
		l0.518,0.518v21.731c0,5.175,2.07,8.278,7.244,8.278c5.174,0,7.244-3.104,7.244-8.278V5.883L67.9,5.365h6.209l0.518,0.518
		L74.626,27.614L74.626,27.614z"/>
	<path fill="#FFFFFF" d="M101.01,27.098h-9.831l-0.518,0.519v13.452l-0.518,0.519h-6.209l-0.518-0.519V5.883l0.518-0.518h17.075
		c7.244,0,12.418,3.622,12.418,10.866C113.428,23.474,108.254,27.098,101.01,27.098z M101.01,11.574h-9.831l-0.518,0.518v8.278
		l0.518,0.518h9.831c3.104,0,5.174-1.034,5.174-4.656C106.185,12.609,104.115,11.574,101.01,11.574z"/>
	<path fill="#FFFFFF" d="M144.987,41.585h-24.319l-0.518-0.519V5.883l0.518-0.518h24.319l0.517,0.518v5.174l-0.517,0.518h-17.075
		l-0.518,0.518v7.244l0.518,0.518h16.04l0.518,0.517v5.175l-0.518,0.518h-16.04l-0.518,0.52v8.277l0.518,0.519h17.075l0.517,0.519
		v5.174L144.987,41.585z"/>
	<path fill="#FFFFFF" d="M176.545,26.58v0.518l6.727,8.797v5.174l-0.518,0.519h-3.104l-1.035-0.519l-10.349-13.452l-1.035-0.519
		h-5.174l-0.518,0.519v13.452l-0.518,0.519h-6.209l-0.517-0.519V5.883l0.517-0.518h17.075c7.244,0,12.418,3.622,12.418,10.866
		C184.307,21.922,180.685,25.545,176.545,26.58z M171.889,11.574h-9.831l-0.518,0.518v8.278l0.518,0.518h9.831
		c3.104,0,5.174-1.034,5.174-4.656C177.063,12.609,174.993,11.574,171.889,11.574z"/>
	<path fill="#FFFFFF" d="M217.936,11.574h-10.349l-0.518,0.518v28.977l-0.518,0.519h-6.209l-0.517-0.519V12.092l-0.518-0.518
		h-10.349l-0.518-0.518V5.883l0.518-0.518h28.976l0.517,0.518v5.174L217.936,11.574z"/>
	<path fill="#FFFFFF" d="M247.424,26.58v0.518l6.727,8.797v5.174l-0.518,0.519h-3.104l-1.035-0.519l-10.349-13.452l-1.035-0.519
		h-5.174l-0.518,0.519v13.452l-0.518,0.519h-6.209l-0.517-0.519V5.883l0.517-0.518h17.075c7.244,0,12.418,3.622,12.418,10.866
		C255.186,21.922,251.564,25.545,247.424,26.58z M242.768,11.574h-9.831l-0.518,0.518v8.278l0.518,0.518h9.831
		c3.104,0,5.174-1.034,5.174-4.656C247.942,12.609,245.872,11.574,242.768,11.574z"/>
	<path fill="#FFFFFF" d="M291.66,41.585h-4.657l-0.517-0.519l-2.587-6.728l-1.035-0.519h-12.937l-1.035,0.519l-2.587,6.728
		l-0.518,0.519h-4.657l-0.518-0.519v-5.174l11.901-30.012l0.519-0.518h6.727l0.517,0.518l11.901,30.012v5.174L291.66,41.585z
		 M276.654,14.679h-0.518l-4.657,12.418l0.518,0.518h8.796l0.518-0.518L276.654,14.679z"/>
	<path fill="#FFFFFF" d="M299.417,5.365h7.244l1.035,0.518l13.971,23.803h0.517V5.883l0.519-0.518h6.209l0.518,0.518v35.186
		l-0.518,0.519h-7.244l-1.035-0.519l-13.97-23.8h-0.519v23.8l-0.518,0.519h-6.209l-0.518-0.519V5.883L299.417,5.365z"/>
	<path fill="#FFFFFF" d="M351.671,42.104c-10.348,0-15.004-5.176-15.004-11.9l0.517-0.518h6.208l0.52,0.518
		c0,3.622,2.068,5.691,8.277,5.691c4.656,0,7.244-1.554,7.244-4.658c0-3.62-2.068-4.654-9.312-5.689
		c-7.244-1.035-12.937-3.623-12.937-10.866c0-5.174,4.141-9.831,13.971-9.831c9.831,0,13.971,4.657,13.971,10.866l-0.519,0.517
		h-6.209l-0.519-0.517c0-3.104-1.552-4.657-7.243-4.657c-4.656,0-6.209,1.553-6.209,3.622c0,3.104,2.069,4.14,9.313,5.174
		c7.243,1.034,12.936,4.139,12.936,11.381C366.677,36.928,362.537,42.104,351.671,42.104z"/>
	<path fill="#FFFFFF" d="M391.768,27.098h-9.832l-0.517,0.519v13.452l-0.519,0.519h-6.209l-0.519-0.519V5.883l0.519-0.518h17.074
		c7.243,0,12.418,3.622,12.418,10.866C404.186,23.474,399.011,27.098,391.768,27.098z M391.768,11.574h-9.832l-0.517,0.518v8.278
		l0.517,0.518h9.832c3.104,0,5.176-1.034,5.176-4.656C396.941,12.609,394.872,11.574,391.768,11.574z"/>
	<path fill="#FFFFFF" d="M426.43,42.104c-10.864,0-17.593-7.763-17.593-18.627c0-10.865,6.729-18.626,17.593-18.626
		c10.866,0,17.595,7.762,17.595,18.626C444.021,34.341,437.296,42.104,426.43,42.104z M426.43,11.057
		c-6.727,0-10.349,5.174-10.349,12.417c0,7.245,3.622,12.418,10.349,12.418c6.729,0,10.351-5.176,10.351-12.418
		C436.778,16.231,433.156,11.057,426.43,11.057z"/>
	<path fill="#FFFFFF" d="M464.715,42.104c-10.349,0-15.006-5.176-15.006-11.9l0.518-0.518h6.209l0.52,0.518
		c0,3.622,2.07,5.691,8.279,5.691c4.654,0,7.241-1.554,7.241-4.658c0-3.62-2.067-4.654-9.312-5.689
		c-7.243-1.035-12.938-3.623-12.938-10.866c0-5.174,4.142-9.831,13.973-9.831s13.971,4.657,13.971,10.866l-0.518,0.517h-6.209
		l-0.52-0.517c0-3.104-1.553-4.657-7.244-4.657c-4.654,0-6.209,1.553-6.209,3.622c0,3.104,2.069,4.14,9.313,5.174
		s12.936,4.139,12.936,11.381C479.72,36.928,475.581,42.104,464.715,42.104z"/>
	<path fill="#FFFFFF" d="M494.203,41.585h-6.209l-0.52-0.519V5.883l0.52-0.518h6.209l0.518,0.518v35.186L494.203,41.585z"/>
	<path fill="#FFFFFF" d="M530.938,11.574h-10.349l-0.518,0.518v28.977l-0.52,0.519h-6.209l-0.518-0.519V12.092l-0.52-0.518H501.96
		l-0.518-0.518V5.883l0.518-0.518h28.976l0.52,0.518v5.174L530.938,11.574z"/>
	<path fill="#FFFFFF" d="M544.904,41.585h-6.209l-0.52-0.519V5.883l0.52-0.518h6.209l0.518,0.518v35.186L544.904,41.585z"/>
	<path fill="#FFFFFF" d="M570.771,42.104c-10.865,0-17.594-7.763-17.594-18.627c0-10.865,6.729-18.626,17.594-18.626
		s17.594,7.762,17.594,18.626C588.365,34.341,581.639,42.104,570.771,42.104z M570.771,11.057c-6.728,0-10.35,5.174-10.35,12.417
		c0,7.245,3.622,12.418,10.35,12.418s10.35-5.176,10.35-12.418C581.121,16.231,577.499,11.057,570.771,11.057z"/>
	<path fill="#FFFFFF" d="M596.122,5.365h7.243l1.035,0.518l13.971,23.803h0.518V5.883l0.52-0.518h6.209l0.518,0.518v35.186
		l-0.518,0.519h-7.244l-1.035-0.519l-13.971-23.8h-0.519v23.8l-0.518,0.519h-6.209l-0.519-0.519V5.883L596.122,5.365z"/>
	<path fill="#FFFFFF" d="M648.895,42.104c-10.349,0-15.006-5.176-15.006-11.9l0.52-0.518h6.209l0.518,0.518
		c0,3.622,2.07,5.691,8.279,5.691c4.656,0,7.243-1.554,7.243-4.658c0-3.62-2.069-4.654-9.313-5.689
		c-7.242-1.035-12.936-3.623-12.936-10.866c0-5.174,4.14-9.831,13.971-9.831s13.971,4.657,13.971,10.866l-0.518,0.517h-6.209
		l-0.518-0.517c0-3.104-1.555-4.657-7.244-4.657c-4.656,0-6.209,1.553-6.209,3.622c0,3.104,2.067,4.14,9.312,5.174
		S663.9,23.993,663.9,31.236C663.898,36.928,659.761,42.104,648.895,42.104z"/>
</g>
<g opacity="0.3">
	<path fill="#FFFFFF" d="M28.45,45.979c-10.349,0-15.005-5.174-15.005-11.899l0.517-0.519h6.209l0.517,0.519
		c0,3.622,2.07,5.69,8.279,5.69c4.657,0,7.244-1.553,7.244-4.655c0-3.622-2.07-4.656-9.313-5.691
		c-7.244-1.034-12.936-3.623-12.936-10.866c0-5.174,4.14-9.831,13.971-9.831s13.97,4.655,13.97,10.865l-0.518,0.517h-6.209
		l-0.518-0.517c0-3.104-1.552-4.657-7.244-4.657c-4.657,0-6.209,1.553-6.209,3.622c0,3.104,2.07,4.14,9.313,5.174
		c7.244,1.034,12.936,4.139,12.936,11.381C43.455,40.805,39.315,45.979,28.45,45.979z"/>
	<path fill="#FFFFFF" d="M78.376,31.49c0,9.312-5.174,14.488-14.488,14.488S49.4,40.803,49.4,31.49V9.759l0.517-0.518h6.209
		l0.518,0.518V31.49c0,5.175,2.07,8.279,7.244,8.279c5.174,0,7.244-3.104,7.244-8.279V9.759l0.518-0.518h6.209l0.518,0.518
		L78.376,31.49L78.376,31.49z"/>
	<path fill="#FFFFFF" d="M104.76,30.973h-9.831l-0.518,0.52v13.451l-0.518,0.52h-6.209l-0.518-0.52V9.759l0.518-0.518h17.075
		c7.244,0,12.418,3.622,12.418,10.866C117.177,27.352,112.004,30.973,104.76,30.973z M104.76,15.45h-9.831l-0.518,0.518v8.278
		l0.518,0.518h9.831c3.104,0,5.174-1.034,5.174-4.656C109.935,16.485,107.865,15.45,104.76,15.45z"/>
	<path fill="#FFFFFF" d="M148.737,45.461h-24.319l-0.518-0.518V9.759l0.518-0.518h24.319l0.517,0.518v5.174l-0.517,0.518h-17.075
		l-0.518,0.518v7.244l0.518,0.518h16.04l0.518,0.517v5.175l-0.518,0.519h-16.04l-0.518,0.519v8.276l0.518,0.52h17.075l0.517,0.52
		v5.174L148.737,45.461z"/>
	<path fill="#FFFFFF" d="M180.295,30.456v0.517l6.727,8.797v5.174l-0.518,0.52H183.4l-1.035-0.52L172.017,31.49l-1.035-0.518h-5.174
		l-0.518,0.518v13.453l-0.518,0.518h-6.209l-0.517-0.518V9.759l0.517-0.518h17.075c7.244,0,12.418,3.622,12.418,10.866
		C188.057,25.798,184.435,29.421,180.295,30.456z M175.639,15.45h-9.831l-0.518,0.518v8.278l0.518,0.518h9.831
		c3.104,0,5.174-1.034,5.174-4.656C180.813,16.485,178.743,15.45,175.639,15.45z"/>
	<path fill="#FFFFFF" d="M221.686,15.45h-10.349l-0.518,0.518v28.976l-0.518,0.52h-6.209l-0.517-0.52V15.968l-0.518-0.518h-10.349
		l-0.518-0.518V9.759l0.518-0.518h28.976l0.517,0.518v5.174L221.686,15.45z"/>
	<path fill="#FFFFFF" d="M251.174,30.456v0.517l6.727,8.797v5.174l-0.518,0.52h-3.104l-1.035-0.52L242.896,31.49l-1.035-0.518
		h-5.174l-0.518,0.518v13.453l-0.518,0.518h-6.209l-0.517-0.518V9.759l0.517-0.518h17.075c7.244,0,12.418,3.622,12.418,10.866
		C258.936,25.798,255.314,29.421,251.174,30.456z M246.518,15.45h-9.831l-0.518,0.518v8.278l0.518,0.518h9.831
		c3.104,0,5.174-1.034,5.174-4.656C251.692,16.485,249.622,15.45,246.518,15.45z"/>
	<path fill="#FFFFFF" d="M295.41,45.461h-4.657l-0.517-0.518l-2.587-6.729l-1.035-0.518h-12.937l-1.035,0.518l-2.587,6.729
		l-0.518,0.518h-4.657l-0.518-0.518V39.77l11.901-30.011l0.519-0.518h6.727l0.517,0.518l11.901,30.011v5.174L295.41,45.461z
		 M280.404,18.555h-0.518l-4.657,12.417l0.518,0.519h8.796l0.518-0.519L280.404,18.555z"/>
	<path fill="#FFFFFF" d="M303.167,9.241h7.244l1.035,0.518l13.971,23.802h0.517V9.759l0.519-0.518h6.209l0.518,0.518v35.185
		l-0.518,0.52h-7.244l-1.035-0.52l-13.97-23.799h-0.519v23.799l-0.518,0.52h-6.209l-0.518-0.52V9.759L303.167,9.241z"/>
	<path fill="#FFFFFF" d="M355.421,45.979c-10.348,0-15.005-5.174-15.005-11.899l0.518-0.519h6.209l0.52,0.519
		c0,3.622,2.068,5.69,8.277,5.69c4.656,0,7.244-1.553,7.244-4.655c0-3.622-2.068-4.656-9.312-5.691
		c-7.244-1.034-12.938-3.623-12.938-10.866c0-5.174,4.142-9.831,13.972-9.831c9.831,0,13.971,4.657,13.971,10.866l-0.519,0.517
		h-6.209l-0.519-0.517c0-3.104-1.552-4.657-7.243-4.657c-4.656,0-6.209,1.553-6.209,3.622c0,3.104,2.069,4.14,9.313,5.174
		c7.243,1.034,12.936,4.139,12.936,11.383C370.427,40.805,366.287,45.979,355.421,45.979z"/>
	<path fill="#FFFFFF" d="M395.518,30.973h-9.832l-0.517,0.52v13.451l-0.519,0.52h-6.209l-0.519-0.52V9.759l0.519-0.518h17.074
		c7.243,0,12.418,3.622,12.418,10.866C407.935,27.352,402.761,30.973,395.518,30.973z M395.518,15.45h-9.832l-0.517,0.518v8.278
		l0.517,0.518h9.832c3.104,0,5.176-1.034,5.176-4.656C400.691,16.485,398.622,15.45,395.518,15.45z"/>
	<path fill="#FFFFFF" d="M430.18,45.979c-10.864,0-17.593-7.762-17.593-18.627c0-10.866,6.729-18.626,17.593-18.626
		c10.866,0,17.595,7.762,17.595,18.626C447.771,38.217,441.046,45.979,430.18,45.979z M430.18,14.933
		c-6.727,0-10.349,5.174-10.349,12.418c0,7.242,3.622,12.418,10.349,12.418c6.729,0,10.351-5.176,10.351-12.418
		C440.528,20.107,436.906,14.933,430.18,14.933z"/>
	<path fill="#FFFFFF" d="M468.465,45.979c-10.349,0-15.006-5.174-15.006-11.899l0.518-0.519h6.209l0.52,0.519
		c0,3.622,2.07,5.69,8.279,5.69c4.654,0,7.241-1.553,7.241-4.655c0-3.622-2.067-4.656-9.312-5.691
		c-7.243-1.034-12.938-3.623-12.938-10.866c0-5.174,4.142-9.831,13.973-9.831s13.971,4.657,13.971,10.866l-0.518,0.517h-6.209
		l-0.52-0.517c0-3.104-1.553-4.657-7.244-4.657c-4.654,0-6.209,1.553-6.209,3.622c0,3.104,2.069,4.14,9.313,5.174
		c7.244,1.034,12.936,4.139,12.936,11.383C483.47,40.805,479.331,45.979,468.465,45.979z"/>
	<path fill="#FFFFFF" d="M497.953,45.461h-6.209l-0.52-0.518V9.759l0.52-0.518h6.209l0.518,0.518v35.185L497.953,45.461z"/>
	<path fill="#FFFFFF" d="M534.688,15.45h-10.349l-0.518,0.518v28.976l-0.52,0.52h-6.209l-0.518-0.52V15.968l-0.52-0.518H505.71
		l-0.518-0.518V9.759l0.518-0.518h28.976l0.52,0.518v5.174L534.688,15.45z"/>
	<path fill="#FFFFFF" d="M548.654,45.461h-6.209l-0.52-0.518V9.759l0.52-0.518h6.209l0.518,0.518v35.185L548.654,45.461z"/>
	<path fill="#FFFFFF" d="M574.521,45.979c-10.865,0-17.594-7.762-17.594-18.627c0-10.866,6.729-18.626,17.594-18.626
		s17.594,7.762,17.594,18.626C592.115,38.217,585.389,45.979,574.521,45.979z M574.521,14.933c-6.728,0-10.35,5.174-10.35,12.418
		c0,7.242,3.622,12.418,10.35,12.418s10.35-5.176,10.35-12.418C584.871,20.107,581.249,14.933,574.521,14.933z"/>
	<path fill="#FFFFFF" d="M599.872,9.241h7.243l1.035,0.518l13.971,23.802h0.518V9.759l0.52-0.518h6.209l0.518,0.518v35.185
		l-0.518,0.52h-7.244l-1.035-0.52l-13.971-23.799h-0.519v23.799l-0.518,0.52h-6.209l-0.519-0.52V9.759L599.872,9.241z"/>
	<path fill="#FFFFFF" d="M652.645,45.979c-10.349,0-15.006-5.174-15.006-11.899l0.52-0.519h6.209l0.518,0.519
		c0,3.622,2.07,5.69,8.279,5.69c4.656,0,7.243-1.553,7.243-4.655c0-3.622-2.069-4.656-9.313-5.691
		c-7.242-1.034-12.936-3.623-12.936-10.866c0-5.174,4.14-9.831,13.971-9.831S666.1,13.383,666.1,19.592l-0.518,0.517h-6.209
		l-0.518-0.517c0-3.104-1.555-4.657-7.244-4.657c-4.656,0-6.209,1.553-6.209,3.622c0,3.104,2.067,4.14,9.312,5.174
		c7.244,1.034,12.938,4.139,12.938,11.383C667.648,40.805,663.511,45.979,652.645,45.979z"/>
</g>
<g>
	<path fill="#FFFFFF" d="M26.575,43.979c-10.349,0-15.005-5.176-15.005-11.9l0.517-0.518h6.209l0.517,0.518
		c0,3.622,2.07,5.691,8.279,5.691c4.657,0,7.244-1.554,7.244-4.658c0-3.62-2.07-4.654-9.313-5.689
		c-7.244-1.035-12.936-3.623-12.936-10.866c0-5.174,4.14-9.831,13.971-9.831s13.971,4.657,13.971,10.866l-0.518,0.517h-6.209
		l-0.518-0.517c0-3.104-1.552-4.657-7.244-4.657c-4.657,0-6.209,1.553-6.209,3.622c0,3.104,2.07,4.14,9.313,5.174
		c7.244,1.034,12.936,4.139,12.936,11.381C41.58,38.803,37.44,43.979,26.575,43.979z"/>
	<path fill="#FFFFFF" d="M76.501,29.489c0,9.312-5.174,14.487-14.488,14.487s-14.488-5.176-14.488-14.487V7.758l0.517-0.518h6.209
		l0.518,0.518v21.731c0,5.175,2.07,8.278,7.244,8.278c5.174,0,7.244-3.104,7.244-8.278V7.758l0.518-0.518h6.209l0.518,0.518
		L76.501,29.489L76.501,29.489z"/>
	<path fill="#FFFFFF" d="M102.885,28.973h-9.831l-0.518,0.519v13.452l-0.518,0.519H85.81l-0.518-0.519V7.758L85.81,7.24h17.075
		c7.244,0,12.418,3.622,12.418,10.866C115.303,25.349,110.129,28.973,102.885,28.973z M102.885,13.449h-9.831l-0.518,0.518v8.278
		l0.518,0.518h9.831c3.104,0,5.174-1.034,5.174-4.656C108.06,14.484,105.99,13.449,102.885,13.449z"/>
	<path fill="#FFFFFF" d="M146.862,43.46h-24.319l-0.518-0.519V7.758l0.518-0.518h24.319l0.517,0.518v5.174l-0.517,0.518h-17.075
		l-0.518,0.518v7.244l0.518,0.518h16.04l0.518,0.517v5.175l-0.518,0.518h-16.04l-0.518,0.52v8.277l0.518,0.519h17.075l0.517,0.519
		v5.174L146.862,43.46z"/>
	<path fill="#FFFFFF" d="M178.42,28.455v0.518l6.727,8.797v5.174l-0.518,0.519h-3.104l-1.035-0.519L170.141,29.49l-1.035-0.518
		h-5.174l-0.518,0.518v13.453l-0.518,0.518h-6.209l-0.517-0.518V7.758l0.517-0.518h17.075c7.244,0,12.418,3.622,12.418,10.866
		C186.182,23.797,182.56,27.42,178.42,28.455z M173.764,13.449h-9.831l-0.518,0.518v8.278l0.518,0.518h9.831
		c3.104,0,5.174-1.034,5.174-4.656C178.938,14.484,176.868,13.449,173.764,13.449z"/>
	<path fill="#FFFFFF" d="M219.811,13.449h-10.349l-0.518,0.518v28.977l-0.518,0.519h-6.209l-0.517-0.519V13.967l-0.518-0.518
		h-10.349l-0.518-0.518V7.758l0.518-0.518h28.976l0.517,0.518v5.174L219.811,13.449z"/>
	<path fill="#FFFFFF" d="M249.299,28.455v0.518l6.727,8.797v5.174l-0.518,0.519h-3.104l-1.035-0.519L241.02,29.49l-1.035-0.518
		h-5.174l-0.518,0.518v13.453l-0.518,0.518h-6.209l-0.517-0.518V7.758l0.517-0.518h17.075c7.244,0,12.418,3.622,12.418,10.866
		C257.061,23.797,253.439,27.42,249.299,28.455z M244.643,13.449h-9.831l-0.518,0.518v8.278l0.518,0.518h9.831
		c3.104,0,5.174-1.034,5.174-4.656C249.817,14.484,247.747,13.449,244.643,13.449z"/>
	<path fill="#FFFFFF" d="M293.535,43.46h-4.657l-0.517-0.519l-2.587-6.728l-1.035-0.519h-12.937l-1.035,0.519l-2.587,6.728
		l-0.518,0.519h-4.657l-0.518-0.519v-5.174L274.39,7.757l0.518-0.518h6.727l0.517,0.518l11.901,30.013v5.174L293.535,43.46z
		 M278.529,16.554h-0.518l-4.657,12.418l0.518,0.518h8.796l0.518-0.518L278.529,16.554z"/>
	<path fill="#FFFFFF" d="M301.292,7.24h7.244l1.035,0.518l13.971,23.803h0.517V7.758l0.519-0.518h6.209l0.518,0.518v35.186
		l-0.518,0.519h-7.244l-1.035-0.519l-13.97-23.8h-0.519v23.8L307.5,43.46h-6.209l-0.518-0.519V7.758L301.292,7.24z"/>
	<path fill="#FFFFFF" d="M353.546,43.979c-10.348,0-15.004-5.176-15.004-11.9l0.517-0.518h6.209l0.52,0.518
		c0,3.622,2.068,5.691,8.277,5.691c4.656,0,7.244-1.554,7.244-4.658c0-3.62-2.068-4.654-9.312-5.689s-12.938-3.623-12.938-10.866
		c0-5.174,4.142-9.831,13.972-9.831c9.831,0,13.971,4.657,13.971,10.866l-0.519,0.517h-6.209l-0.519-0.517
		c0-3.104-1.552-4.657-7.243-4.657c-4.656,0-6.209,1.553-6.209,3.622c0,3.104,2.069,4.14,9.313,5.174
		c7.243,1.034,12.936,4.139,12.936,11.381C368.552,38.803,364.412,43.979,353.546,43.979z"/>
	<path fill="#FFFFFF" d="M393.643,28.973h-9.832l-0.517,0.519v13.452l-0.519,0.519h-6.209l-0.519-0.519V7.758l0.519-0.518h17.074
		c7.243,0,12.418,3.622,12.418,10.866C406.061,25.349,400.886,28.973,393.643,28.973z M393.643,13.449h-9.832l-0.517,0.518v8.278
		l0.517,0.518h9.832c3.104,0,5.176-1.034,5.176-4.656C398.816,14.484,396.747,13.449,393.643,13.449z"/>
	<path fill="#FFFFFF" d="M428.305,43.979c-10.864,0-17.593-7.763-17.593-18.627c0-10.865,6.729-18.626,17.593-18.626
		c10.866,0,17.595,7.762,17.595,18.626C445.896,36.216,439.171,43.979,428.305,43.979z M428.305,12.932
		c-6.727,0-10.349,5.174-10.349,12.417c0,7.245,3.622,12.418,10.349,12.418c6.729,0,10.351-5.176,10.351-12.418
		C438.653,18.106,435.031,12.932,428.305,12.932z"/>
	<path fill="#FFFFFF" d="M466.59,43.979c-10.349,0-15.006-5.176-15.006-11.9l0.518-0.518h6.209l0.52,0.518
		c0,3.622,2.07,5.691,8.279,5.691c4.654,0,7.241-1.554,7.241-4.658c0-3.62-2.067-4.654-9.312-5.689
		c-7.243-1.035-12.938-3.623-12.938-10.866c0-5.174,4.142-9.831,13.973-9.831s13.971,4.657,13.971,10.866l-0.518,0.517h-6.209
		l-0.52-0.517c0-3.104-1.553-4.657-7.244-4.657c-4.654,0-6.209,1.553-6.209,3.622c0,3.104,2.069,4.14,9.313,5.174
		s12.936,4.139,12.936,11.381C481.595,38.803,477.456,43.979,466.59,43.979z"/>
	<path fill="#FFFFFF" d="M496.078,43.46h-6.209l-0.52-0.519V7.758l0.52-0.518h6.209l0.518,0.518v35.186L496.078,43.46z"/>
	<path fill="#FFFFFF" d="M532.812,13.449h-10.351l-0.518,0.518v28.977l-0.52,0.519h-6.209l-0.518-0.519V13.967l-0.52-0.518h-10.348
		l-0.518-0.518V7.758l0.518-0.518h28.976l0.52,0.518v5.174L532.812,13.449z"/>
	<path fill="#FFFFFF" d="M546.779,43.46h-6.209l-0.52-0.519V7.758l0.52-0.518h6.209l0.518,0.518v35.186L546.779,43.46z"/>
	<path fill="#FFFFFF" d="M572.646,43.979c-10.865,0-17.594-7.763-17.594-18.627c0-10.865,6.729-18.626,17.594-18.626
		s17.594,7.762,17.594,18.626C590.24,36.216,583.514,43.979,572.646,43.979z M572.646,12.932c-6.728,0-10.35,5.174-10.35,12.417
		c0,7.245,3.622,12.418,10.35,12.418s10.35-5.176,10.35-12.418C582.996,18.106,579.374,12.932,572.646,12.932z"/>
	<path fill="#FFFFFF" d="M597.997,7.24h7.243l1.035,0.518l13.971,23.803h0.518V7.758l0.52-0.518h6.209l0.518,0.518v35.186
		l-0.518,0.519h-7.244l-1.035-0.519L605.24,19.141h-0.519v23.8l-0.518,0.519h-6.209l-0.519-0.519V7.758L597.997,7.24z"/>
	<path fill="#FFFFFF" d="M650.77,43.979c-10.349,0-15.006-5.176-15.006-11.9l0.52-0.518h6.209l0.518,0.518
		c0,3.622,2.07,5.691,8.279,5.691c4.656,0,7.243-1.554,7.243-4.658c0-3.62-2.069-4.654-9.313-5.689
		c-7.242-1.035-12.936-3.623-12.936-10.866c0-5.174,4.14-9.831,13.971-9.831s13.971,4.657,13.971,10.866l-0.518,0.517h-6.209
		l-0.518-0.517c0-3.104-1.555-4.657-7.244-4.657c-4.656,0-6.209,1.553-6.209,3.622c0,3.104,2.067,4.14,9.312,5.174
		s12.938,4.139,12.938,11.381C665.773,38.803,661.636,43.979,650.77,43.979z"/>
</g>
</svg>
